<?xml version="1.0" encoding="UTF-8"?>
<svg id="Ebene_2" xmlns="http://www.w3.org/2000/svg" viewBox="0 0 595.8211 179.48"><g id="Components"><g id="_8383805a-b578-45be-b930-b9ec4dc2e359_1"><path d="M225.0399,140.7561c-4.5137,0-8.832-.959-12.9551-2.8789-4.123-1.9189-7.3389-4.4775-9.6494-7.6768l10.1299-8.5303c1.7764,1.8125,3.8555,3.2793,6.2373,4.3984,2.3809,1.1201,4.6377,1.6797,6.7705,1.6797,2.3457,0,4.1406-.3467,5.3848-1.04,1.2432-.6924,1.8662-1.6963,1.8662-3.0117,0-.7812-.3027-1.4932-.9062-2.1328-.6055-.6396-1.751-1.3408-3.4395-2.1055-1.6885-.7637-4.1494-1.7324-7.3838-2.9053-6.2197-2.2393-10.582-4.6562-13.0879-7.251-2.5059-2.5938-3.7588-5.9355-3.7588-10.0225,0-4.6562,1.8926-8.4141,5.6777-11.2754,3.7852-2.8604,8.7168-4.292,14.7949-4.292,4.1221,0,7.9434.7822,11.4619,2.3457,3.5186,1.5645,6.5576,3.8389,9.1162,6.8242l-10.2363,8.4229c-3.1631-3.0557-6.7168-4.585-10.6621-4.585-1.7412,0-3.1719.3115-4.292.9336-1.1191.6221-1.6787,1.4121-1.6787,2.3721,0,.9951.6836,1.9023,2.0527,2.7187,1.3672.8184,3.9893,1.7959,7.8633,2.9326,4.3359,1.2441,7.8809,2.7012,10.6357,4.3711,2.7539,1.6709,4.7793,3.626,6.0771,5.8643,1.2979,2.2393,1.9463,4.834,1.9463,7.7842,0,5.3311-1.9551,9.5078-5.8643,12.5283-3.9102,3.0215-9.2764,4.5312-16.1006,4.5312Z" style="fill:#000; stroke-width:0px;"/><path d="M280.325,140.7561c-7.8193,0-13.9863-2.5322-18.5-7.5967-4.5137-5.0645-6.7705-12.0225-6.7705-20.8721,0-5.8281,1.0303-10.8838,3.0918-15.167,2.0615-4.2822,4.9854-7.5879,8.7705-9.916,3.7852-2.3271,8.2539-3.4922,13.4082-3.4922,5.1172,0,9.5508,1.165,13.3008,3.4922,3.75,2.3281,6.6455,5.624,8.6904,9.8896,2.043,4.2646,3.0654,9.3291,3.0654,15.1934,0,5.9004-1.0049,10.9746-3.0127,15.2207-2.0078,4.248-4.8867,7.5176-8.6367,9.8096-3.75,2.292-8.2188,3.4385-13.4072,3.4385ZM280.325,125.2962c2.9492,0,5.2148-1.1279,6.7969-3.3857,1.5811-2.2568,2.3721-5.4648,2.3721-9.623s-.8086-7.3838-2.4258-9.6758c-1.6172-2.293-3.8643-3.4385-6.7432-3.4385s-5.1445,1.1729-6.7979,3.5186c-1.6523,2.3457-2.4785,5.5439-2.4785,9.5957s.8262,7.2334,2.4785,9.543c1.6533,2.3105,3.9189,3.4658,6.7979,3.4658Z" style="fill:#000; stroke-width:0px;"/><path d="M316.4266,139.4768v-69.8389l15.9932-7.1436v76.9824h-15.9932Z" style="fill:#000; stroke-width:0px;"/><path d="M360.6434,139.4768l-19.9385-54.4854h16.7393l10.4492,29.748c.2842.7119.5508,1.5293.7998,2.4531.248.9238.4805,1.8125.6934,2.665.2129-.8525.4531-1.7324.7197-2.6387s.5234-1.7324.7725-2.4795l10.4492-29.748h16.7402l-19.9385,54.4854h-17.4863Z" style="fill:#000; stroke-width:0px;"/><path d="M427.5926,140.7561c-5.4033,0-10.0498-1.1377-13.9414-3.4121-3.8916-2.2734-6.877-5.5439-8.9561-9.8096-2.0791-4.2646-3.1191-9.3828-3.1191-15.3535,0-5.793,1.0576-10.8223,3.1719-15.0869,2.1143-4.2656,5.1182-7.5615,9.0098-9.8896,3.8926-2.3271,8.5039-3.4922,13.835-3.4922,4.6201,0,8.7871.9326,12.502,2.7988,3.7129,1.8662,6.6641,4.71,8.8496,8.5303s3.2783,8.6455,3.2783,14.4736c0,.9961-.0176,2.2314-.0527,3.7061-.0361,1.4746-.1602,2.9414-.373,4.3975h-34.6533c0,1.9551.4268,3.6523,1.2793,5.0918.8535,1.4395,2.0605,2.5508,3.625,3.332,1.5635.7822,3.4121,1.1729,5.5449,1.1729,2.7725,0,5.0908-.4443,6.957-1.333,1.8662-.8877,3.6699-2.3633,5.4111-4.4248l9.1699,9.1699c-2.5586,3.0918-5.5977,5.5537-9.1162,7.3838-3.5186,1.8301-7.6592,2.7451-12.4219,2.7451ZM417.3563,105.677h19.6191c-.2852-1.8838-.835-3.4473-1.6523-4.6914-.8184-1.2441-1.9023-2.1768-3.252-2.7988-1.3516-.6221-2.9863-.9336-4.9053-.9336-2.5947,0-4.7803.7471-6.5576,2.2393-1.7773,1.4932-2.8613,3.5547-3.252,6.1846Z" style="fill:#000; stroke-width:0px;"/><path d="M462.9666,139.4768c0-6.7822.7334-12.748,2.2021-17.8975,1.4678-5.1484,3.5254-9.6777,6.1729-13.5859,2.6465-3.9082,5.7695-7.3398,9.3672-10.2979,3.5977-2.9561,7.5264-5.6143,11.7871-7.9717,1.8193-1.0332,3.5557-2.1182,5.2109-3.2568,1.6533-1.1367,2.998-2.4287,4.0322-3.877,1.0332-1.4473,1.5508-3.1221,1.5508-5.0244,0-2.6055-.7969-4.5801-2.3887-5.9248-1.5928-1.3438-3.6904-2.0166-6.2969-2.0166-2.7295,0-5.1904.7354-7.3818,2.2031-2.1924,1.4678-4.0322,3.5459-5.5215,6.2344l-17.3691-7.9404c2.7295-5.9561,6.8232-10.6084,12.2822-13.958,5.46-3.3506,11.291-5.0254,17.4941-5.0254,6.0381,0,11.1768,1.1689,15.416,3.5049,4.2393,2.3369,7.4648,5.4492,9.6777,9.3369,2.2119,3.8877,3.3193,8.168,3.3193,12.8408,0,5.0049-.7666,9.1611-2.2959,12.4697-1.5303,3.3086-3.6396,6.1318-6.3271,8.4678-2.6895,2.3369-5.7695,4.5391-9.2441,6.6064-3.8877,2.3164-7.041,4.3115-9.46,5.9863s-4.3535,3.3096-5.8008,4.9014-2.6465,3.4219-3.5977,5.4902h37.4697v18.7344h-60.2988Z" style="fill:#e5610e; stroke-width:0px;"/><path d="M535.5223,139.4768c0-6.7822.7334-12.748,2.2021-17.8975,1.4678-5.1484,3.5254-9.6777,6.1729-13.5859,2.6465-3.9082,5.7695-7.3398,9.3672-10.2979,3.5977-2.9561,7.5264-5.6143,11.7871-7.9717,1.8193-1.0332,3.5557-2.1182,5.2109-3.2568,1.6533-1.1367,2.998-2.4287,4.0322-3.877,1.0332-1.4473,1.5508-3.1221,1.5508-5.0244,0-2.6055-.7969-4.5801-2.3887-5.9248-1.5928-1.3438-3.6904-2.0166-6.2969-2.0166-2.7295,0-5.1904.7354-7.3818,2.2031-2.1924,1.4678-4.0322,3.5459-5.5215,6.2344l-17.3691-7.9404c2.7295-5.9561,6.8232-10.6084,12.2822-13.958,5.46-3.3506,11.291-5.0254,17.4941-5.0254,6.0381,0,11.1768,1.1689,15.416,3.5049,4.2393,2.3369,7.4648,5.4492,9.6777,9.3369,2.2119,3.8877,3.3193,8.168,3.3193,12.8408,0,5.0049-.7666,9.1611-2.2959,12.4697-1.5303,3.3086-3.6396,6.1318-6.3271,8.4678-2.6895,2.3369-5.7695,4.5391-9.2441,6.6064-3.8877,2.3164-7.041,4.3115-9.46,5.9863-2.4189,1.6748-4.3535,3.3096-5.8008,4.9014-1.4473,1.5918-2.6465,3.4219-3.5977,5.4902h37.4697v18.7344h-60.2988Z" style="fill:#e5610e; stroke-width:0px;"/><path d="M167.8301,45.5701c-4,4.1899-8.3,8.99-12.8101,14.4399,4.1499,9.0601,6.46,19.13,6.46,29.73,0,39.55-32.1799,71.74-71.74,71.74S18,129.29,18,89.74,50.1899,18,89.74,18c13.98,0,27.04,4.02,38.0701,10.96,4.5601-3.9399,9.52-7.84,14.8699-11.6299C127.8398,6.44,109.52,0,89.74,0,40.26,0,0,40.26,0,89.74s40.26,89.74,89.74,89.74,89.74-40.26,89.74-89.74c0-16.05-4.23-31.12-11.6499-44.1699Z" style="fill:#000; stroke-width:0px;"/><path d="M51.5552,58.9839c-1.416,0-2.8389.3906-4.0947,1.1924-3.167,2.0244-4.3896,6.1338-2.8428,9.5596l27.5791,61.1045c2.3369,5.1768,7.5176,8.5225,13.1982,8.5225,5.5137,0,10.624-3.1973,13.0205-8.1465C140.6831,43.9087,189.1714,13.5659,191.2153,12.3169c1.0908-.666,1.5801-1.3467,1.7979-1.7939-.9873-2.7666-2.4502-3.4688-2.9678-3.7168-3.2568-1.5664-8.5254.1016-10.1123.8076-61.2422,27.1416-87.1523,80.1641-87.4072,80.6963-.7061,1.4775-2.0928,2.5176-3.71,2.7803-1.6133.2646-3.2607-.2812-4.3984-1.458l-27.3711-28.3291c-1.4746-1.5264-3.4756-2.3193-5.4912-2.3193Z" style="fill:#e5610e; stroke-width:0px;"/><path d="M167.8301,45.5701c-4,4.1899-8.3,8.99-12.8101,14.4399,4.1499,9.0601,6.46,19.13,6.46,29.73,0,39.55-32.1799,71.74-71.74,71.74S18,129.29,18,89.74,50.1899,18,89.74,18c13.98,0,27.04,4.02,38.0701,10.96,4.5601-3.9399,9.52-7.84,14.8699-11.6299C127.8398,6.44,109.52,0,89.74,0,40.26,0,0,40.26,0,89.74s40.26,89.74,89.74,89.74,89.74-40.26,89.74-89.74c0-16.05-4.23-31.12-11.6499-44.1699Z" style="fill:#000; stroke-width:0px;"/><path d="M51.5552,58.9839c-1.416,0-2.8389.3906-4.0947,1.1924-3.167,2.0244-4.3896,6.1338-2.8428,9.5596l27.5791,61.1045c2.3369,5.1768,7.5176,8.5225,13.1982,8.5225,5.5137,0,10.624-3.1973,13.0205-8.1465C140.6831,43.9087,189.1714,13.5659,191.2153,12.3169c1.0908-.666,1.5801-1.3467,1.7979-1.7939-.9873-2.7666-2.4502-3.4688-2.9678-3.7168-3.2568-1.5664-8.5254.1016-10.1123.8076-61.2422,27.1416-87.1523,80.1641-87.4072,80.6963-.7061,1.4775-2.0928,2.5176-3.71,2.7803-1.6133.2646-3.2607-.2812-4.3984-1.458l-27.3711-28.3291c-1.4746-1.5264-3.4756-2.3193-5.4912-2.3193Z" style="fill:#e5610e; stroke-width:0px;"/></g></g></svg>